<?xml version="1.0" encoding="UTF-8" standalone="no"?>
<!DOCTYPE svg PUBLIC "-//W3C//DTD SVG 1.1//EN" "http://www.w3.org/Graphics/SVG/1.1/DTD/svg11.dtd">
<svg width="100%" height="100%" viewBox="0 0 800 800" version="1.1" xmlns="http://www.w3.org/2000/svg" xmlns:xlink="http://www.w3.org/1999/xlink" xml:space="preserve" xmlns:serif="http://www.serif.com/" style="fill-rule:evenodd;clip-rule:evenodd;stroke-linejoin:round;stroke-miterlimit:2;">
    <path d="M353.9,382.433L510.1,505.6L406.7,250.2L353.9,382.433ZM400,0C179.033,0 0,179.033 0,400C0,620.967 179.033,800 400,800C620.967,800 800,620.967 800,400C800,179.033 620.967,0 400,0ZM593.233,576.833C592.867,592.533 579.8,604.9 564.067,604.5C556.2,604.5 550.2,601.5 541.933,594.733L335.6,428.067L266.3,601.5L206.367,601.5L381.267,181.333C385.4,170.867 395.5,164 406.733,164.467C417.6,164 427.733,170.767 431.467,181.333L590.6,564.467C592.1,568.167 593.267,572.267 593.267,576.067C593.233,576.367 593.233,576.367 593.233,576.833Z" style="fill:rgb(242,242,242);fill-rule:nonzero;"/>
</svg>
