<?xml version="1.0" encoding="UTF-8" standalone="no"?>
<!DOCTYPE svg PUBLIC "-//W3C//DTD SVG 1.1//EN" "http://www.w3.org/Graphics/SVG/1.1/DTD/svg11.dtd">
<svg width="100%" height="100%" viewBox="0 0 256 153" version="1.1" xmlns="http://www.w3.org/2000/svg" xmlns:xlink="http://www.w3.org/1999/xlink" xml:space="preserve" xmlns:serif="http://www.serif.com/" style="fill-rule:evenodd;clip-rule:evenodd;stroke-linejoin:round;stroke-miterlimit:2;">
    <path d="M72.392,55.439C72.392,58.575 72.731,61.118 73.324,62.983C74.003,64.848 74.85,66.882 76.037,69.086C76.461,69.764 76.63,70.443 76.63,71.036C76.63,71.884 76.122,72.731 75.02,73.579L69.679,77.139C68.916,77.648 68.153,77.902 67.475,77.902C66.628,77.902 65.78,77.478 64.932,76.715C63.746,75.444 62.728,74.088 61.881,72.731C61.033,71.29 60.185,69.68 59.253,67.73C52.641,75.529 44.334,79.428 34.331,79.428C27.211,79.428 21.531,77.394 17.377,73.325C13.224,69.256 11.105,63.831 11.105,57.049C11.105,49.844 13.648,43.995 18.818,39.587C23.989,35.179 30.856,32.975 39.587,32.975C42.469,32.975 45.436,33.229 48.572,33.653C51.709,34.077 54.93,34.755 58.32,35.518L58.32,29.33C58.32,22.888 56.964,18.395 54.336,15.767C51.624,13.139 47.046,11.868 40.519,11.868C37.552,11.868 34.501,12.207 31.364,12.97C28.228,13.733 25.176,14.665 22.209,15.852C20.853,16.445 19.836,16.784 19.242,16.954C18.649,17.123 18.225,17.208 17.886,17.208C16.699,17.208 16.106,16.36 16.106,14.58L16.106,10.427C16.106,9.07 16.275,8.053 16.699,7.46C17.123,6.866 17.886,6.273 19.073,5.68C22.04,4.154 25.6,2.882 29.754,1.865C33.907,0.763 38.315,0.254 42.977,0.254C53.065,0.254 60.44,2.543 65.187,7.121C69.849,11.698 72.222,18.649 72.222,27.974L72.222,55.439L72.392,55.439ZM37.976,68.323C40.773,68.323 43.656,67.815 46.707,66.798C49.759,65.78 52.471,63.915 54.76,61.372C56.116,59.762 57.134,57.982 57.642,55.947C58.151,53.913 58.49,51.455 58.49,48.572L58.49,45.012C56.032,44.419 53.404,43.91 50.691,43.571C47.979,43.232 45.351,43.062 42.723,43.062C37.044,43.062 32.89,44.164 30.093,46.453C27.295,48.742 25.939,51.963 25.939,56.202C25.939,60.186 26.956,63.153 29.075,65.187C31.11,67.306 34.077,68.323 37.976,68.323ZM106.045,77.478C104.519,77.478 103.502,77.224 102.824,76.631C102.146,76.122 101.552,74.935 101.044,73.325L81.123,7.799C80.614,6.104 80.36,5.002 80.36,4.408C80.36,3.052 81.038,2.289 82.395,2.289L90.702,2.289C92.312,2.289 93.414,2.543 94.008,3.137C94.686,3.645 95.195,4.832 95.703,6.443L109.944,62.559L123.168,6.443C123.592,4.747 124.101,3.645 124.779,3.137C125.457,2.628 126.644,2.289 128.169,2.289L134.951,2.289C136.561,2.289 137.663,2.543 138.342,3.137C139.02,3.645 139.613,4.832 139.952,6.443L153.346,63.237L168.01,6.443C168.519,4.747 169.112,3.645 169.706,3.137C170.384,2.628 171.486,2.289 173.012,2.289L180.895,2.289C182.252,2.289 183.014,2.967 183.014,4.408C183.014,4.832 182.93,5.256 182.845,5.764C182.76,6.273 182.591,6.951 182.252,7.884L161.822,73.409C161.314,75.105 160.72,76.207 160.042,76.715C159.364,77.224 158.262,77.563 156.821,77.563L149.531,77.563C147.92,77.563 146.818,77.309 146.14,76.715C145.462,76.122 144.869,75.02 144.53,73.325L131.391,18.649L118.336,73.24C117.912,74.935 117.404,76.037 116.726,76.631C116.048,77.224 114.861,77.478 113.335,77.478L106.045,77.478ZM214.972,79.767C210.564,79.767 206.156,79.259 201.918,78.241C197.679,77.224 194.373,76.122 192.169,74.851C190.813,74.088 189.881,73.24 189.542,72.477C189.203,71.714 189.033,70.866 189.033,70.104L189.033,65.78C189.033,64 189.711,63.153 190.983,63.153C191.491,63.153 192,63.237 192.508,63.407C193.017,63.576 193.78,63.915 194.628,64.254C197.51,65.526 200.646,66.543 203.952,67.221C207.343,67.9 210.649,68.239 214.04,68.239C219.38,68.239 223.534,67.306 226.416,65.441C229.298,63.576 230.824,60.864 230.824,57.388C230.824,55.015 230.061,53.065 228.535,51.455C227.009,49.844 224.127,48.403 219.973,47.047L207.682,43.232C201.494,41.282 196.916,38.4 194.119,34.586C191.322,30.856 189.881,26.702 189.881,22.294C189.881,18.734 190.644,15.598 192.169,12.885C193.695,10.172 195.73,7.799 198.273,5.934C200.816,3.984 203.698,2.543 207.089,1.526C210.479,0.509 214.04,0.085 217.769,0.085C219.634,0.085 221.584,0.17 223.449,0.424C225.399,0.678 227.179,1.017 228.959,1.356C230.654,1.78 232.265,2.204 233.791,2.713C235.316,3.221 236.503,3.73 237.351,4.239C238.538,4.917 239.385,5.595 239.894,6.358C240.403,7.036 240.657,7.968 240.657,9.155L240.657,13.139C240.657,14.919 239.979,15.852 238.707,15.852C238.029,15.852 236.927,15.513 235.486,14.835C230.654,12.631 225.229,11.529 219.21,11.529C214.379,11.529 210.564,12.292 207.936,13.902C205.308,15.513 203.952,17.971 203.952,21.447C203.952,23.82 204.8,25.855 206.495,27.465C208.191,29.076 211.327,30.686 215.82,32.127L227.857,35.942C233.96,37.892 238.368,40.604 240.996,44.08C243.624,47.555 244.895,51.539 244.895,55.947C244.895,59.592 244.132,62.898 242.691,65.78C241.165,68.662 239.131,71.206 236.503,73.24C233.875,75.359 230.739,76.885 227.094,77.987C223.279,79.174 219.295,79.767 214.972,79.767Z" style="fill:white;fill-rule:nonzero;"/>
    <path d="M230.994,120.964C203.105,141.563 162.586,152.498 127.746,152.498C78.919,152.498 34.925,134.443 1.696,104.435C-0.932,102.061 1.441,98.84 4.578,100.705C40.519,121.558 84.853,134.188 130.713,134.188C161.653,134.188 195.645,127.746 226.925,114.522C231.587,112.403 235.571,117.574 230.994,120.964ZM242.607,107.741C239.047,103.163 219.041,105.537 209.971,106.639C207.258,106.978 206.835,104.604 209.293,102.824C225.229,91.635 251.423,94.856 254.474,98.586C257.526,102.4 253.627,128.594 238.707,141.139C236.419,143.089 234.215,142.072 235.232,139.529C238.623,131.137 246.167,112.233 242.607,107.741Z" style="fill:rgb(255,153,0);fill-rule:nonzero;"/>
</svg>
