<?xml version="1.0" encoding="UTF-8" standalone="no"?>
<!DOCTYPE svg PUBLIC "-//W3C//DTD SVG 1.1//EN" "http://www.w3.org/Graphics/SVG/1.1/DTD/svg11.dtd">
<svg width="100%" height="100%" viewBox="0 0 256 255" version="1.1" xmlns="http://www.w3.org/2000/svg" xmlns:xlink="http://www.w3.org/1999/xlink" xml:space="preserve" xmlns:serif="http://www.serif.com/" style="fill-rule:evenodd;clip-rule:evenodd;stroke-linejoin:round;stroke-miterlimit:2;">
    <g>
        <path d="M18.124,127.5C18.124,170.796 43.285,208.211 79.77,225.942L27.594,82.986C21.525,96.589 18.124,111.643 18.124,127.5ZM201.345,121.981C201.345,108.463 196.489,99.101 192.325,91.815C186.78,82.805 181.583,75.175 181.583,66.165C181.583,56.11 189.209,46.75 199.951,46.75C200.436,46.75 200.895,46.811 201.368,46.838C181.908,29.009 155.981,18.124 127.505,18.124C89.292,18.124 55.673,37.73 36.115,67.426C38.681,67.503 41.099,67.557 43.154,67.557C54.595,67.557 72.304,66.169 72.304,66.169C78.201,65.821 78.896,74.481 73.006,75.179C73.006,75.179 67.08,75.876 60.487,76.221L100.319,194.699L124.256,122.909L107.214,76.217C101.324,75.872 95.744,75.175 95.744,75.175C89.85,74.829 90.541,65.817 96.435,66.165C96.435,66.165 114.499,67.553 125.246,67.553C136.685,67.553 154.397,66.165 154.397,66.165C160.298,65.817 160.991,74.477 155.099,75.175C155.099,75.175 149.161,75.872 142.58,76.217L182.108,193.798L193.018,157.34C197.746,142.211 201.345,131.345 201.345,121.981ZM129.424,137.068L96.606,232.431C106.404,235.312 116.767,236.887 127.505,236.887C140.242,236.887 152.457,234.685 163.828,230.687C163.534,230.219 163.268,229.721 163.049,229.18L129.424,137.068ZM223.482,75.023C223.952,78.507 224.219,82.247 224.219,86.27C224.219,97.37 222.146,109.847 215.902,125.448L182.491,222.048C215.009,203.085 236.881,167.855 236.881,127.503C236.883,108.486 232.025,90.603 223.482,75.023ZM127.505,0C57.2,0 0,57.196 0,127.5C0,197.813 57.2,255.007 127.505,255.007C197.807,255.007 255.016,197.813 255.016,127.5C255.013,57.196 197.807,0 127.505,0ZM127.505,249.163C60.424,249.163 5.846,194.585 5.846,127.5C5.846,60.42 60.422,5.846 127.505,5.846C194.583,5.846 249.157,60.42 249.157,127.5C249.157,194.585 194.583,249.163 127.505,249.163Z" style="fill:white;fill-rule:nonzero;"/>
    </g>
</svg>
